<svg xmlns="http://www.w3.org/2000/svg" version="1.1" xmlns:xlink="http://www.w3.org/1999/xlink"
    xmlns:svgjs="http://svgjs.dev/svgjs" width="1440" height="720" preserveAspectRatio="none"
    viewBox="0 0 1440 720">
    <g mask="url(&quot;#SvgjsMask6147&quot;)" fill="none">
        <rect width="1440" height="720" x="0" y="0" fill="url(&quot;#SvgjsLinearGradient6148&quot;)"></rect>
        <path
            d="M1560 720L0 720 L0 455.5Q54.23 437.73, 72 491.95Q114.92 462.87, 144 505.78Q187.32 477.1, 216 520.42Q234.8 467.22, 288 486.02Q304.99 431.01, 360 448Q402.74 418.74, 432 461.48Q484.01 441.5, 504 493.51Q560.25 477.75, 576 534Q603.87 489.87, 648 517.73Q698.98 448.71, 768 499.69Q776.02 435.72, 840 443.74Q911.34 443.07, 912 514.41Q952.79 435.2, 1032 475.99Q1058.49 430.48, 1104 456.97Q1163.57 444.54, 1176 504.11Q1206.51 414.62, 1296 445.13Q1342.45 419.59, 1368 466.04Q1430.82 456.86, 1440 519.67Q1479.4 439.07, 1560 478.47z"
            fill="rgba(49, 21, 109, 1)"></path>
        <path
            d="M1536 720L0 720 L0 524.02Q92.62 496.63, 120 589.25Q145.29 542.54, 192 567.82Q226.44 482.26, 312 516.7Q361.36 494.06, 384 543.42Q429.27 516.69, 456 561.97Q522.12 508.09, 576 574.2Q590.64 516.84, 648 531.48Q721.11 484.59, 768 557.7Q783.91 501.62, 840 517.53Q912.29 469.82, 960 542.1Q1015.89 525.99, 1032 581.88Q1065.85 495.73, 1152 529.58Q1198.61 504.19, 1224 550.81Q1266.11 472.91, 1344 515.02Q1403.15 502.17, 1416 561.33Q1468.6 493.93, 1536 546.54z"
            fill="rgba(68, 12, 138, 1)"></path>
        <path
            d="M1488 720L0 720 L0 614.11Q77.37 571.49, 120 648.86Q151.52 560.38, 240 591.91Q317.22 549.13, 360 626.35Q438.95 585.3, 480 664.25Q499.55 563.8, 600 583.34Q644.18 555.52, 672 599.7Q740.44 548.14, 792 616.59Q834.73 539.32, 912 582.05Q955.53 553.58, 984 597.1Q1056.59 549.68, 1104 622.27Q1186.49 584.76, 1224 667.25Q1249.19 620.44, 1296 645.63Q1348.42 578.05, 1416 630.46Q1469.46 611.92, 1488 665.39z"
            fill="rgba(104, 39, 183, 1)"></path>
        <path
            d="M1488 720L0 720 L0 740.76Q22.8 691.56, 72 714.35Q88.41 658.76, 144 675.17Q168.4 627.57, 216 651.96Q301.15 617.11, 336 702.26Q378.25 672.51, 408 714.76Q481.69 668.45, 528 742.14Q545.23 639.37, 648 656.6Q693.22 629.82, 720 675.03Q764.62 647.64, 792 692.26Q842.31 670.57, 864 720.87Q904.2 641.07, 984 681.26Q1029.63 606.88, 1104 652.51Q1146.84 623.35, 1176 666.18Q1250.78 620.96, 1296 695.74Q1356.23 683.98, 1368 744.21Q1421.59 677.8, 1488 731.38z"
            fill="white"></path>
    </g>
    <defs>
        <mask id="SvgjsMask6147">
            <rect width="1440" height="720" fill="#ffffff"></rect>
        </mask>
        <linearGradient x1="50%" y1="0%" x2="50%" y2="100%" gradientUnits="userSpaceOnUse"
            id="SvgjsLinearGradient6148">
            <stop stop-color="rgba(25, 7, 54, 1)" offset="0"></stop>
            <stop stop-color="rgba(32, 17, 59, 1)" offset="1"></stop>
        </linearGradient>
    </defs>
</svg>